<?xml version="1.0" standalone="no"?>
<!DOCTYPE svg PUBLIC "-//W3C//DTD SVG 20010904//EN"
 "http://www.w3.org/TR/2001/REC-SVG-20010904/DTD/svg10.dtd">
<svg version="1.0" xmlns="http://www.w3.org/2000/svg"
 width="357.000000pt" height="141.000000pt" viewBox="0 0 357.000000 141.000000"
 preserveAspectRatio="xMidYMid meet">

<g transform="translate(0.000000,141.000000) scale(0.100000,-0.100000)"
fill="#ffffff" stroke="none">
<path d="M1685 1326 c-33 -8 -78 -21 -99 -30 -21 -9 -45 -16 -53 -16 -18 0
-137 -95 -189 -152 -48 -52 -88 -118 -116 -191 -11 -28 -25 -55 -31 -59 -7 -4
-46 -8 -88 -8 -85 0 -89 -3 -89 -81 0 -27 -13 -53 -57 -114 -65 -87 -80 -81
-44 16 12 30 21 65 21 79 0 34 -26 70 -51 70 -10 0 -19 5 -19 10 0 18 -64 50
-85 44 -24 -7 -65 -43 -65 -57 0 -6 11 2 25 17 34 36 76 35 108 -4 15 -17 32
-28 40 -25 16 7 37 -34 36 -68 -1 -24 -4 -18 -14 26 -4 20 -10 27 -21 23 -9
-4 -26 7 -45 29 -36 41 -57 44 -86 13 -72 -79 -86 -273 -23 -305 23 -12 24
-13 4 -13 -31 0 -44 21 -56 92 -10 61 -1 127 26 189 5 10 2 16 -8 16 -10 0
-18 -13 -22 -34 -4 -19 -9 -32 -11 -29 -3 3 5 43 17 91 13 47 25 83 27 81 2
-2 -1 -25 -8 -50 -6 -26 -10 -49 -7 -51 2 -2 21 61 43 141 44 167 43 182 -21
227 -44 31 -118 45 -143 29 -14 -10 -50 -278 -51 -379 l0 -52 -56 -21 c-31
-11 -58 -19 -59 -18 -2 2 10 68 26 148 16 80 29 157 29 172 0 77 -155 160
-179 96 -9 -26 -41 -331 -41 -395 0 -41 -1 -42 -37 -48 -21 -4 -46 -9 -56 -12
-34 -9 -59 -91 -41 -137 8 -21 37 -20 83 3 l38 20 11 -100 c12 -110 29 -149
66 -149 35 0 43 17 50 105 3 44 12 107 19 140 l12 59 63 22 62 23 0 -42 c0
-82 21 -212 37 -229 19 -21 54 -23 71 -6 7 7 12 34 12 62 0 27 5 79 12 115
l12 66 15 -69 c18 -76 37 -94 88 -81 15 4 22 10 15 12 -8 3 -4 11 12 24 31 25
36 24 36 -5 0 -42 11 -56 44 -57 31 -2 31 -2 3 -6 -37 -6 -57 12 -57 49 0 25
-3 28 -14 19 -12 -10 -12 -16 1 -42 29 -59 87 -57 151 4 48 46 39 57 -10 12
l-43 -40 39 42 c22 23 43 40 47 37 9 -5 49 62 75 128 19 48 43 68 29 26 -31
-97 -37 -138 -26 -166 16 -39 112 -97 146 -88 16 4 25 2 25 -5 0 -7 14 -34 31
-62 17 -27 36 -66 42 -86 8 -25 22 -41 46 -53 19 -10 54 -31 78 -48 58 -42
176 -95 241 -109 74 -16 215 -13 291 4 104 25 196 79 286 170 86 85 141 179
164 280 7 28 25 74 42 102 31 56 35 68 19 58 -6 -4 -7 1 -3 11 4 11 8 13 11 6
2 -7 8 -9 14 -6 7 4 7 -2 3 -17 -42 -130 -29 -219 33 -219 28 0 102 46 102 63
0 6 -10 1 -22 -10 -13 -11 -30 -23 -38 -28 -8 -4 1 6 20 21 19 16 39 29 45 29
5 1 27 -14 48 -33 37 -32 72 -39 72 -15 0 6 4 15 9 20 5 5 6 3 2 -4 -17 -29
15 -10 49 29 l36 43 22 -30 c12 -16 36 -45 54 -63 l33 -34 32 19 c18 10 44 36
57 56 13 20 32 37 41 37 9 0 22 6 29 13 11 10 13 9 7 -6 -27 -77 -15 -127 29
-127 26 0 32 10 54 105 l17 70 7 -80 c3 -44 12 -100 20 -125 11 -40 16 -45 42
-45 17 0 30 5 31 10 0 12 44 85 50 85 7 0 -16 -42 -34 -62 -8 -10 -11 -18 -6
-18 19 0 66 88 95 181 27 85 29 100 19 138 -6 23 -16 41 -21 39 -6 -2 -28 -46
-50 -98 -56 -134 -76 -148 -44 -30 18 69 19 111 1 153 -30 73 -80 88 -116 37
-21 -29 -23 -30 -35 -13 -18 24 -42 9 -71 -41 l-21 -37 -7 51 c-5 35 -15 60
-35 82 -27 30 -30 31 -60 18 -35 -14 -67 -51 -102 -120 l-23 -45 -8 38 c-11
51 -34 94 -57 107 -44 23 -117 -39 -151 -129 -32 -84 -50 -118 -76 -142 -35
-33 -30 -13 28 106 57 118 63 153 28 190 -33 35 -72 33 -102 -5 l-24 -31 -13
24 c-15 29 -51 48 -78 41 -14 -4 -25 8 -49 58 -43 87 -101 156 -185 224 -57
45 -90 63 -163 86 -110 36 -247 45 -341 24z m140 -6 c-3 -5 -24 -10 -45 -10
-30 0 -48 -8 -75 -31 l-35 -31 -53 14 -52 15 54 18 c84 28 218 44 206 25z
m172 -87 c29 -14 53 -30 53 -35 0 -5 -20 3 -43 17 -24 14 -51 25 -60 25 -10 0
-17 5 -17 10 0 15 10 13 67 -17z m-480 -20 c-3 -10 -5 -4 -5 12 0 17 2 24 5
18 2 -7 2 -21 0 -30z m-827 -5 c24 -13 53 -35 63 -50 17 -22 18 -32 9 -65
l-11 -38 5 41 c5 37 2 44 -30 72 -35 30 -93 49 -119 39 -14 -5 -29 -105 -47
-314 -4 -56 -11 -106 -14 -112 -6 -10 -126 -51 -147 -51 -5 0 -8 12 -8 28 1
18 3 21 6 9 5 -20 36 -17 104 10 l36 14 7 102 c8 118 33 314 41 328 10 16 59
10 105 -13z m798 0 c-2 -33 20 -93 42 -113 11 -10 17 -21 15 -25 -3 -4 2 -13
10 -20 8 -7 15 -17 15 -23 0 -6 8 -20 18 -31 10 -12 23 -33 29 -47 10 -23 7
-30 -24 -62 -19 -20 -31 -37 -28 -37 3 0 -4 -18 -16 -40 -12 -22 -24 -38 -25
-37 -2 2 10 50 26 106 l30 104 -20 32 c-11 18 -27 38 -34 45 -21 17 -41 -20
-56 -105 -20 -110 -22 -114 -68 -108 -34 5 -42 1 -70 -28 -17 -19 -49 -68 -69
-109 -21 -41 -43 -73 -48 -70 -19 10 -8 75 23 140 36 76 35 94 -2 23 -14 -26
-25 -44 -26 -40 0 12 39 85 50 92 5 3 10 12 10 19 0 9 -14 6 -47 -10 -34 -18
-63 -24 -110 -24 l-63 0 0 -42 c0 -48 -18 -82 -92 -175 -52 -66 -89 -83 -87
-40 0 19 1 19 7 4 7 -16 11 -14 38 15 59 63 114 145 114 170 0 14 3 40 6 57
l7 31 71 0 c76 0 136 24 136 55 0 8 4 15 9 15 12 0 25 -56 16 -70 -3 -5 -1
-10 4 -10 24 0 6 84 -22 101 -15 10 41 105 98 168 42 45 119 111 131 111 2 0
3 -10 2 -22z m639 -31 c-7 -49 -46 -157 -57 -157 -4 0 4 28 17 62 14 34 28 79
31 100 2 21 7 38 10 38 2 0 2 -19 -1 -43z m116 -29 c68 -68 147 -193 147 -229
-1 -21 -39 -68 -40 -48 0 20 -41 58 -68 64 -30 5 -48 -22 -62 -90 -18 -96 -18
-96 -40 -83 -15 10 -23 9 -38 -5 -10 -9 -27 -16 -38 -16 -17 1 -17 2 -2 6 18
5 30 34 25 66 -1 13 9 22 36 32 47 16 46 15 49 46 3 26 0 27 -64 14 -41 -8
-56 12 -17 22 17 5 19 11 13 37 -6 27 -28 55 -45 56 -4 0 4 29 17 64 20 55 29
91 33 129 2 19 28 1 94 -65z m-248 52 c-3 -5 -11 -10 -16 -10 -6 0 -7 5 -4 10
3 6 11 10 16 10 6 0 7 -4 4 -10z m-1616 -25 c35 -17 81 -71 81 -92 0 -29 -22
-144 -27 -140 -2 3 1 35 8 72 8 48 8 73 1 90 -13 27 -96 79 -115 72 -9 -3 -19
-59 -31 -183 -9 -99 -19 -202 -22 -230 l-5 -52 -55 -7 c-38 -4 -57 -12 -64
-25 -14 -26 -12 -87 3 -94 6 -3 3 -4 -8 -3 -17 2 -20 10 -19 49 0 55 24 88 63
88 61 0 71 9 71 59 0 45 23 283 36 369 5 36 10 42 31 42 13 0 37 -7 52 -15z
m1234 -129 c72 -95 86 -118 43 -71 -48 53 -122 163 -130 195 -4 14 2 8 14 -15
11 -22 44 -71 73 -109z m70 124 c4 0 7 -4 7 -8 0 -5 -20 -4 -45 2 -25 6 -45
14 -45 17 0 4 17 3 38 -2 20 -5 40 -9 45 -9z m357 -10 c0 -5 -9 -10 -21 -10
-11 0 -17 5 -14 10 3 6 13 10 21 10 8 0 14 -4 14 -10z m-330 -45 c13 -14 21
-25 18 -25 -2 0 -15 11 -28 25 -13 14 -21 25 -18 25 2 0 15 -11 28 -25z m-963
-87 c-3 -8 -6 -5 -6 6 -1 11 2 17 5 13 3 -3 4 -12 1 -19z m812 -58 c-1 -23 -2
-22 -10 6 -11 39 -39 66 -39 38 0 -37 -48 -218 -59 -222 -6 -2 -11 -20 -11
-41 0 -37 -39 -111 -73 -140 -19 -15 -47 -8 -47 11 0 10 2 10 8 1 17 -27 102
91 102 142 0 10 -5 14 -12 10 -7 -4 -5 0 4 8 13 10 15 16 6 25 -34 34 -92 -9
-131 -98 -25 -56 -82 -136 -104 -144 -24 -10 -35 13 -29 60 5 40 35 128 42
122 1 -2 -6 -28 -16 -58 -21 -59 -26 -110 -11 -110 18 0 69 69 106 144 52 106
93 135 142 101 20 -14 21 -12 36 43 8 31 18 74 22 96 3 21 11 50 16 65 l11 26
24 -30 c13 -16 24 -41 23 -55z m-825 6 c-3 -15 -8 -25 -11 -23 -2 3 -1 17 3
31 3 15 8 25 11 23 2 -3 1 -17 -3 -31z m1380 21 c17 -13 17 -15 2 -45 -9 -18
-19 -32 -22 -32 -2 0 3 14 11 30 14 27 14 31 0 36 -22 9 -43 -12 -75 -77 -22
-43 -37 -59 -61 -68 -47 -16 -59 -14 -59 12 0 12 -13 37 -29 56 l-28 34 -7
-50 c-9 -74 -142 -267 -192 -279 -36 -9 -54 2 -54 34 0 28 17 50 50 66 8 4 3
-2 -12 -14 -36 -28 -39 -70 -5 -70 30 1 44 13 105 93 69 90 92 137 92 186 0
22 5 43 10 46 13 8 69 -53 78 -87 7 -25 8 -26 39 -13 18 8 39 28 49 47 33 64
64 108 77 108 7 0 21 -6 31 -13z m-567 -79 c-3 -8 -6 -5 -6 6 -1 11 2 17 5 13
3 -3 4 -12 1 -19z m-1120 -20 c-3 -7 -5 -2 -5 12 0 14 2 19 5 13 2 -7 2 -19 0
-25z m1894 1 c21 -21 23 -55 5 -104 l-8 -20 13 20 c65 107 81 125 110 125 42
0 67 -41 51 -83 -15 -41 -8 -47 12 -9 25 48 66 92 87 92 30 0 59 -36 59 -72
-1 -18 -12 -53 -25 -78 -29 -54 -33 -46 -5 10 27 52 26 95 -2 114 -30 21 -49
8 -92 -63 -38 -62 -50 -97 -16 -46 11 17 20 26 20 20 -1 -14 -29 -50 -40 -50
-5 0 -16 -9 -24 -20 -8 -11 -17 -17 -20 -14 -9 8 14 70 24 64 4 -3 8 5 8 18 0
12 3 34 7 49 6 21 2 29 -19 43 -25 17 -28 17 -46 0 -19 -17 -70 -97 -70 -110
0 -3 6 -3 13 1 7 4 9 3 4 -2 -5 -5 -14 -9 -20 -9 -5 0 -12 -6 -15 -14 -3 -8 0
-11 5 -8 12 7 10 -33 -7 -140 -7 -46 -10 -90 -6 -99 7 -19 47 -15 54 6 5 13 3
13 -12 1 -36 -30 -40 1 -16 131 12 68 22 131 22 141 0 9 4 17 10 17 11 0 9
-19 -16 -160 -9 -47 -16 -96 -16 -110 1 -24 1 -24 15 -6 11 14 15 16 15 5 0
-12 2 -12 11 1 19 27 -1 -30 -34 -100 -35 -73 -164 -210 -232 -247 l-40 -21 0
56 c0 39 6 66 19 84 21 32 16 70 -13 103 -10 11 -25 34 -32 50 -10 20 -21 30
-35 29 -14 -1 -24 8 -32 28 -9 25 -9 29 4 24 55 -21 64 -19 109 27 41 40 62
78 33 61 -7 -4 -8 -3 -4 5 4 6 11 9 16 6 5 -3 14 3 19 14 16 29 13 38 -4 15
-14 -17 -14 -15 0 14 26 54 6 55 -42 2 -54 -61 -100 -89 -109 -66 -3 7 -4 31
-1 52 l4 39 1 -42 c1 -24 7 -43 12 -43 13 0 104 89 118 115 8 16 13 17 26 6
13 -11 15 -30 11 -106 -2 -52 -5 -97 -6 -102 -5 -30 3 -44 23 -41 17 2 37 29
80 108 58 106 66 126 48 115 -6 -3 -7 1 -4 12 3 10 -2 5 -11 -10 -9 -16 -14
-31 -11 -34 6 -6 -21 -63 -30 -63 -2 0 2 13 11 29 10 21 11 31 3 33 -8 3 -8
14 1 41 7 20 16 35 21 32 4 -3 8 5 9 18 0 12 3 38 7 59 5 32 3 38 -21 54 -26
17 -28 17 -40 1 -7 -10 -22 -82 -34 -160 -35 -230 -34 -222 -16 -207 8 7 15
18 15 24 0 7 7 21 15 32 14 17 14 17 3 -11 -14 -36 -37 -65 -51 -65 -18 0 12
255 44 373 8 30 14 37 34 37 14 0 34 -9 46 -21z m-235 -5 c-5 -13 -1 -15 16
-11 77 18 98 19 98 3 0 -9 -6 -13 -13 -10 -8 3 -35 0 -62 -6 -26 -6 -50 -9
-52 -6 -6 6 6 46 14 46 3 0 2 -7 -1 -16z m-562 -58 c-10 -31 -19 -54 -22 -52
-2 2 4 29 14 60 10 31 19 54 22 52 2 -2 -4 -29 -14 -60z m1515 54 c24 -12 51
-80 51 -125 0 -48 16 -44 42 10 28 57 45 64 62 24 l13 -31 12 30 c17 39 45 65
68 60 41 -7 76 -128 53 -183 -5 -13 -6 0 -3 35 9 114 -59 170 -101 82 -22 -45
-37 -49 -46 -13 -8 35 -23 30 -45 -16 -32 -69 -65 -69 -65 0 0 48 -28 111 -51
115 -24 4 -63 -32 -90 -85 -32 -64 -48 -83 -71 -83 -14 0 -18 8 -18 33 -1 45
-35 117 -56 117 -28 0 -98 -81 -113 -130 -22 -67 -40 -102 -74 -137 -34 -36
-77 -45 -77 -15 0 13 2 14 9 3 7 -10 13 -11 29 -2 24 13 82 93 82 113 0 19 49
120 68 141 9 11 30 26 45 34 26 13 31 13 49 -4 25 -22 48 -73 48 -108 0 -42
25 -28 55 30 23 47 83 115 101 115 3 0 13 -4 23 -10z m-2624 -60 c-4 -23 -9
-39 -11 -37 -3 2 -2 23 2 46 4 23 9 40 11 37 3 -3 2 -23 -2 -46z m1295 30 c22
-22 26 -56 10 -80 -8 -11 -9 -8 -4 12 8 36 -11 68 -41 68 -54 0 -145 -114
-145 -181 0 -37 -33 -79 -62 -79 -10 0 -18 3 -18 7 0 16 43 163 47 160 2 -3
-5 -37 -16 -78 -12 -40 -19 -74 -18 -76 2 -1 12 4 24 12 13 9 22 29 25 59 7
59 49 130 100 166 48 35 71 37 98 10z m460 0 c-8 -5 -22 -9 -30 -9 -10 0 -8 3
5 9 27 12 43 12 25 0z m-53 -16 c-3 -3 -12 -4 -19 -1 -8 3 -5 6 6 6 11 1 17
-2 13 -5z m-49 -18 c-7 -8 -15 -12 -17 -11 -5 6 10 25 20 25 5 0 4 -6 -3 -14z
m-368 -16 c0 -12 -50 -70 -61 -70 -16 0 -9 37 12 61 l21 24 -16 -25 c-9 -13
-16 -29 -16 -35 1 -16 40 35 40 52 0 8 5 11 10 8 6 -3 10 -10 10 -15z m860 13
c0 -5 -12 -48 -25 -98 -26 -93 -34 -180 -19 -195 5 -4 18 -10 29 -13 19 -4 18
-5 -2 -6 -56 -3 -66 56 -32 185 11 43 22 90 24 104 2 14 4 26 4 28 2 6 21 1
21 -5z m-589 -16 c0 -22 -27 -77 -35 -74 -12 4 -27 57 -20 69 3 4 11 8 17 8 8
0 9 -3 1 -8 -6 -4 -8 -18 -4 -32 l6 -25 9 30 c4 17 7 34 6 38 -1 5 3 7 9 5 7
-2 11 -7 11 -11z m-1107 -15 c15 -18 15 -22 -1 -72 -20 -61 -72 -123 -97 -114
-11 4 -16 17 -14 43 l1 36 4 -32 c8 -65 59 -23 90 73 12 40 14 57 6 65 -18 18
-40 4 -62 -38 -11 -21 -20 -34 -21 -30 0 12 20 49 38 70 19 22 35 22 56 -1z
m1172 -38 c-8 -21 -15 -34 -15 -28 -1 15 20 76 25 71 2 -2 -2 -21 -10 -43z
m84 39 c-1 -24 -17 -33 -41 -23 -24 10 -24 10 -1 6 14 -3 25 1 29 10 6 15 13
19 13 7z m938 -38 c4 -44 -20 -115 -48 -140 -40 -36 -53 15 -24 99 9 26 18 45
20 43 2 -2 -3 -23 -11 -47 -33 -93 -9 -123 30 -37 27 61 25 127 -4 105 -14
-12 -15 -11 -2 5 21 26 36 16 39 -28z m-2212 21 c7 -19 -33 -110 -58 -133 -21
-18 -21 -18 -15 19 7 48 43 128 57 128 6 0 13 -6 16 -14z m1044 -57 c0 -74
-44 -123 -89 -100 -29 16 -26 34 13 86 19 24 38 55 42 67 6 21 7 21 20 3 8
-10 14 -36 14 -56z m933 31 c9 -36 -2 -74 -35 -115 -50 -64 -66 10 -23 103 28
59 45 63 58 12z m-1699 -37 c-35 -79 -42 -138 -18 -164 27 -30 93 -62 112 -54
14 5 15 4 4 -7 -11 -11 -23 -8 -70 18 -71 38 -86 65 -72 129 6 26 19 65 29 86
l19 39 -29 0 c-21 0 -29 -5 -29 -17 -1 -10 -10 -34 -21 -53 -11 -19 -17 -26
-13 -15 4 11 13 38 21 60 13 39 15 40 52 37 l39 -4 -24 -55z m286 25 c0 -17
-51 -100 -57 -94 -3 3 6 26 21 52 31 55 32 61 9 43 -16 -13 -17 -12 -4 3 14
18 31 16 31 -4z m300 19 c0 -2 -10 -12 -22 -23 l-23 -19 19 23 c18 21 26 27
26 19z m1310 -74 c-27 -62 -36 -49 -15 23 13 47 19 55 26 41 7 -12 4 -30 -11
-64z m435 39 c3 -16 1 -39 -5 -53 -10 -23 -10 -23 -5 4 11 56 -8 47 -35 -16
-36 -85 -69 -139 -84 -134 -6 2 -12 23 -12 48 l-2 44 7 -40 7 -40 22 35 c12
19 36 70 54 112 17 42 35 75 39 72 4 -2 10 -17 14 -32z m-2797 -30 c-6 -29
-13 -50 -16 -47 -2 2 1 27 8 55 7 28 14 49 16 47 3 -2 -1 -27 -8 -55z m-105
-74 c6 -138 16 -178 47 -178 18 0 20 7 22 68 l2 67 3 -64 c4 -71 -4 -87 -40
-77 -33 8 -37 20 -50 168 -6 77 -14 125 -20 121 -6 -3 -7 -1 -3 5 4 7 13 12
20 12 10 0 15 -32 19 -122z m347 47 c-10 -33 -19 -53 -19 -44 -1 18 30 112 35
107 2 -2 -5 -31 -16 -63z m2370 -35 c0 -105 16 -190 38 -207 14 -12 14 -13 -1
-13 -9 0 -20 8 -25 18 -15 27 -32 142 -33 218 -1 67 -1 68 -14 39 -8 -16 -14
-23 -15 -15 0 22 29 62 41 55 5 -4 9 -46 9 -95z m-2780 80 c-8 -5 -19 -10 -25
-10 -5 0 -3 5 5 10 8 5 20 10 25 10 6 0 3 -5 -5 -10z m868 -15 c-6 -14 -13
-23 -15 -21 -5 5 15 46 22 46 3 0 -1 -11 -7 -25z m1097 -15 c-9 -16 -18 -30
-21 -30 -2 0 2 14 11 30 9 17 18 30 21 30 2 0 -2 -13 -11 -30z m-404 3 c13
-16 12 -17 -3 -4 -17 13 -22 21 -14 21 2 0 10 -8 17 -17z m1116 -35 c-3 -29
-9 -74 -13 -100 -5 -40 -4 -48 9 -48 11 0 20 22 33 75 10 41 20 73 22 70 2 -2
-3 -36 -13 -75 -18 -75 -36 -94 -62 -68 -13 14 -13 24 1 93 9 43 14 80 11 83
-3 3 -5 -1 -5 -8 0 -7 -2 -11 -5 -8 -8 8 6 38 17 38 7 0 8 -20 5 -52z m-2764
32 c-14 -6 -23 -19 -24 -32 -1 -18 -2 -19 -6 -5 -6 22 14 47 36 46 11 0 9 -3
-6 -9z m1086 -34 c-9 -8 -10 -7 -5 7 3 10 7 24 7 30 1 7 3 4 6 -7 3 -10 -1
-23 -8 -30z m168 12 c-3 -7 -5 -2 -5 12 0 14 2 19 5 13 2 -7 2 -19 0 -25z
m1468 -28 c-20 -22 -40 -26 -51 -9 -4 7 0 9 13 5 12 -4 25 -1 33 9 7 8 15 15
18 15 3 0 -3 -9 -13 -20z m202 -2 c-3 -8 -6 -5 -6 6 -1 11 2 17 5 13 3 -3 4
-12 1 -19z m-3054 -96 c7 -115 18 -152 46 -152 17 0 21 8 24 58 l3 57 0 -60
c-1 -53 -3 -60 -22 -63 -31 -4 -51 20 -57 70 -15 106 -19 201 -10 195 6 -4 13
-51 16 -105z m2142 78 c-9 -16 -18 -30 -21 -30 -2 0 2 14 11 30 9 17 18 30 21
30 2 0 -2 -13 -11 -30z m136 3 c-12 -20 -14 -14 -5 12 4 9 9 14 11 11 3 -2 0
-13 -6 -23z m349 2 c0 -21 71 -106 82 -99 7 5 8 2 3 -5 -8 -15 -66 35 -93 82
-20 33 -44 35 -66 5 -16 -22 -16 -22 -2 8 13 26 19 30 45 26 17 -2 31 -10 31
-17z m530 -20 c-16 -47 -23 -40 -8 8 6 20 13 35 16 33 2 -3 -1 -21 -8 -41z
m-2793 -2 c-3 -10 -5 -4 -5 12 0 17 2 24 5 18 2 -7 2 -21 0 -30z m373 17 c-6
-11 -13 -20 -16 -20 -2 0 0 9 6 20 6 11 13 20 16 20 2 0 0 -9 -6 -20z m184 5
c3 -8 1 -15 -4 -15 -6 0 -10 7 -10 15 0 8 2 15 4 15 2 0 6 -7 10 -15z m566 6
c0 -5 14 -24 31 -41 25 -25 38 -30 58 -26 22 5 23 4 8 -4 -24 -15 -51 -5 -85
34 l-29 34 -39 -37 -39 -36 40 43 c38 41 55 51 55 33z m-1396 -60 c-4 -28 -9
-50 -11 -47 -3 3 -2 28 2 56 4 28 9 49 12 47 2 -3 1 -28 -3 -56z m1766 55 c0
-2 -8 -10 -17 -17 -16 -13 -17 -12 -4 4 13 16 21 21 21 13z m-475 -74 c-2 -2
-29 9 -60 23 l-57 27 -36 -33 -37 -34 38 41 38 41 59 -31 c32 -17 57 -32 55
-34z m395 3 c0 -4 -61 19 -97 37 -17 8 -26 8 -40 -3 -17 -13 -17 -13 -1 7 l18
20 60 -28 c33 -16 60 -31 60 -33z m654 20 c52 -55 45 -60 -9 -5 -21 21 -43 36
-48 33 -6 -3 -7 -1 -3 5 11 18 15 16 60 -33z m358 18 c-6 -10 -23 -29 -38 -43
-25 -22 -25 -21 4 13 18 21 32 43 32 49 0 6 3 9 6 6 3 -4 1 -15 -4 -25z
m-1513 -29 c-6 -8 -16 -14 -22 -14 -6 0 -20 -8 -31 -17 -12 -10 -6 -1 13 19
19 21 38 35 43 32 5 -3 4 -12 -3 -20z m-198 -28 c8 4 9 3 5 -4 -11 -17 -21
-15 -54 13 -28 23 -42 24 -42 2 0 -6 3 -7 6 -4 4 3 18 -3 32 -13 37 -30 71
-24 78 13 1 4 2 10 3 13 0 3 13 -4 27 -15 15 -12 36 -21 46 -21 14 0 1 -14
-41 -45 -33 -26 -69 -58 -79 -72 l-19 -27 -25 40 c-36 59 -49 92 -38 99 6 4
10 11 10 17 0 6 -7 5 -17 -3 -11 -9 -10 -3 6 18 l22 33 34 -26 c20 -15 39 -23
46 -18z m103 -5 c-6 -7 -54 29 -54 40 0 6 13 0 29 -13 15 -13 27 -25 25 -27z
m1947 2 c-12 -20 -14 -14 -5 12 4 9 9 14 11 11 3 -2 0 -13 -6 -23z m-1575
-120 c66 -167 126 -243 189 -243 37 0 41 6 48 80 3 26 4 23 5 -16 2 -57 -9
-74 -50 -74 -65 0 -107 42 -164 164 -24 52 -33 64 -34 45 0 -14 -5 -30 -12
-37 -15 -15 -38 -16 -38 -2 0 6 3 9 8 9 22 -4 30 4 35 37 7 39 0 67 -14 58 -5
-3 -9 0 -9 5 0 25 22 8 36 -26z m-61 -27 c18 -13 15 -14 -25 -9 -36 4 -66 -3
-155 -37 -60 -23 -135 -44 -166 -47 -53 -5 -58 -4 -74 21 -10 15 -15 29 -11
33 3 3 6 1 6 -5 0 -20 31 -42 60 -42 29 0 84 16 230 69 97 35 109 36 135 17z
m311 -71 c-14 -13 -26 -19 -26 -12 0 7 9 18 20 25 11 7 21 24 21 40 l2 27 4
-28 c3 -21 -2 -35 -21 -52z m-354 25 c-1 -6 2 -9 6 -6 5 3 17 -3 27 -14 12
-13 25 -18 39 -14 19 4 26 -3 46 -45 20 -43 71 -106 82 -101 1 0 14 -3 28 -8
23 -8 20 -10 -28 -21 -149 -32 -346 13 -470 106 l-34 25 114 40 c152 53 161
55 178 53 8 -2 14 -8 12 -15z"/>
<path d="M1861 763 c-1 -6 -17 -33 -37 -58 -36 -48 -39 -75 -6 -75 40 0 66 54
53 110 -5 19 -9 30 -10 23z"/>
<path d="M2771 731 c-11 -27 -21 -64 -21 -82 0 -29 2 -32 15 -19 26 27 51 91
47 121 -6 41 -16 36 -41 -20z m13 -53 c-25 -45 -31 -13 -8 39 15 32 18 35 21
16 2 -12 -4 -37 -13 -55z"/>
</g>
</svg>
