<svg xmlns="http://www.w3.org/2000/svg" width="168.06716" height="101.05618" viewBox="0 0 168.06716 101.05618">
  <defs>
    <style>
      .a {
        fill: #d20000;
      }
    </style>
  </defs>
  <path class="a" d="M127.2922,37.586a5.05618,5.05618,0,1,0,5.05618,5.05618A5.05619,5.05619,0,0,0,127.2922,37.586ZM2.15175,52.75458V88.14784H9.736V62.15592c2.491-.60343,4.99145-1.17987,7.46576-1.83682A4.11834,4.11834,0,0,1,22.34684,63.657l.0395,24.49087h7.58427l.00988-12.64045.02962-6.32022-.02962-3.16011-.01975-1.59981a12.48667,12.48667,0,0,0-.30614-2.19233c2.59391-.62656,5.19585-1.23185,7.7719-1.91582A4.11834,4.11834,0,0,1,42.57156,63.657l.0395,24.49087h7.58427l.00988-12.64045.02962-6.32022-.02962-3.16011-.01975-1.59981a12.14737,12.14737,0,0,0-.32589-2.33058,11.23942,11.23942,0,0,0-5.5302-7.16951,11.01748,11.01748,0,0,0-8.75943-.711c-2.86133.97553-5.70126,2.031-8.54218,3.08111a10.69406,10.69406,0,0,0-11.68254-3.08111c-1.879.64062-3.73981,1.34806-5.6092,2.02444v-3.486Zm63.20225,0-7.5744.00988L57.78948,65c-.04551,4.16123-.08715,7.97376.04937,12.42319a11.15393,11.15393,0,0,0,4.13778,7.7324,13.70777,13.70777,0,0,0,7.75215,2.96261,14.03836,14.03836,0,0,0,7.66327-1.73807c.204-.10535.39962-.2277.6024-.33576v1.185h7.58426v-34.465H77.99445V79.8328c-1.0695.37073-2.14846.72339-3.19962,1.13566a7.9316,7.9316,0,0,1-4.47353.711c-2.90225-.35393-5.11464-2.66445-4.93768-4.64142.0455-3.70112.06091-8.05355-.00987-12.04793Zm58.14606,0V88.14784h7.58427V52.75458Zm30.2087.01975a15.55165,15.55165,0,0,0-5.23393,1.21467c-6.67416,2.92247-9.95791,9.796-9.80623,15.91907a23.37538,23.37538,0,0,0,1.76769,8.84831,15.69144,15.69144,0,0,0,6.82387,7.39664,18.03243,18.03243,0,0,0,9.86547,1.93557,26.73153,26.73153,0,0,0,5.55983-1.08629V81.82762c-4.5.70787-8.94983.70691-11.7813-1.22455-3.1854-1.977-4.70184-6.21309-4.65129-10.78388a11.02648,11.02648,0,0,1,5.36232-9.99385c3.23595-1.74438,7.42981-1.0362,11.07027,1.46155V55.06542a16.75365,16.75365,0,0,0-3.74276-1.68869A15.29454,15.29454,0,0,0,153.70876,52.77433Zm-48.13246.05926a18.74553,18.74553,0,0,0-3.96989.79c-4.4646,1.40562-7.6579,4.41619-8.09779,7.4954a9.67386,9.67386,0,0,0,5.471,10.063,25.86375,25.86375,0,0,0,5.65857,2.10345c3.48877.83426,5.70392,1.778,6.50786,3.02186a3.415,3.415,0,0,1,.62215,2.11332,2.40974,2.40974,0,0,1-1.1653,2.31083c-1.9719,1.077-5.35915,1.46962-8.44342,1.12579a40.48611,40.48611,0,0,1-10.26049-2.98235v5.43144a26.2226,26.2226,0,0,0,9.45071,3.42675c3.89326.53595,7.89356.88033,12.39357-1.07642,2.17415-.87977,4.80929-2.8471,4.80929-8.19654,0-5.582-4.05087-8.03529-6.07334-9.01619a33.34942,33.34942,0,0,0-5.6092-2.05408c-1.66854-.541-6.07334-1.259-6.07334-5.05618,0-1.58258,1.66894-2.46465,2.933-2.854,4.24719-1.41574,9.2536-.327,13.45023,1.82694v-6.261A22.48544,22.48544,0,0,0,105.5763,52.83359Zm50.04828,50.48279c-5.61742,0-12.28825,1.4181-17.20286,4.95743-1.40562,1.06179-1.40886,2.47871.34564,2.47871,5.61741-.70786,18.26118-2.48424,20.71848.70115,2.10843,2.83147-2.454,14.87782-4.56241,20.54073-.70281,1.76966.70771,2.11846,2.11333,1.05666,9.48033-8.1455,11.941-24.78673,10.18148-26.91033C166.16656,104.37612,161.242,103.31638,155.62458,103.31638ZM.70007,107.16777a1.25881,1.25881,0,0,0-.74065.44439A1.27679,1.27679,0,0,0,.147,109.3996a133.99572,133.99572,0,0,0,34.67236,19.8692,134.20428,134.20428,0,0,0,39.36315,9.07545,127.87922,127.87922,0,0,0,40.38031-3.69338c13.1309-3.39776,25.64067-8.62276,36.83506-16.561a2.52545,2.52545,0,0,0-2.51821-4.355l-.19751.08888a168.7013,168.7013,0,0,1-36.25242,11.52453,158.11683,158.11683,0,0,1-37.66458,3.12061c-12.59494-.51068-25.10615-3.01885-37.40783-6.51773a195.46476,195.46476,0,0,1-35.7389-14.60565l-.079-.04937A1.25371,1.25371,0,0,0,.70007,107.16777Z" transform="translate(0.32176 -37.58604)"/>
</svg>
