<svg xmlns="http://www.w3.org/2000/svg" width="141.22529" height="167.45201" viewBox="0 0 141.22529 167.45201">
  <defs>
    <style>
      .a {
        fill: #d20000;
      }
    </style>
  </defs>
  <path class="a" d="M130.24255,161.25675c-9.08281,8.81468-19.10407,7.44053-28.6561,3.28455-10.15532-4.23976-19.43922-4.50789-30.16431,0-13.35609,5.76474-20.4447,4.08895-28.48852-3.28455-45.414-46.75469-38.71087-117.976,12.90362-120.65726,12.51819.67032,21.2826,6.921,28.6561,7.44053,10.9597-2.2288,21.45018-8.61358,33.18074-7.77568q21.14016,1.70931,31.67253,16.70768c-28.99125,17.42827-22.12049,55.6364,4.5079,66.36149-5.329,13.99289-12.16627,27.8182-23.62872,38.04055Zm-46.75469-121.16C82.13047,19.3169,98.97221,2.22378,118.3444.548,121.00892,24.51186,96.55906,42.44287,83.48786,40.09676Z" transform="translate(-12.62921 -0.54799)"/>
</svg>
