<svg xmlns="http://www.w3.org/2000/svg" width="90.50738" height="167.40443" viewBox="0 0 90.50738 167.40443">
  <defs>
    <style>
      .a {
        fill: #d20000;
      }
    </style>
  </defs>
  <path class="a" d="M124.90469.03483,103.19609,0c-24.38888,0-40.15,16.17043-40.15,41.19846V60.19371H41.219a3.41379,3.41379,0,0,0-3.41347,3.4152v27.522A3.41341,3.41341,0,0,0,41.219,94.54433h21.827V163.991a3.4123,3.4123,0,0,0,3.41346,3.41346H94.93758A3.41341,3.41341,0,0,0,98.351,163.991V94.54433h25.52089a3.4123,3.4123,0,0,0,3.41347-3.41346l.01044-27.522a3.416,3.416,0,0,0-3.4152-3.41521H98.35105V44.09119c0-7.73951,1.84432-11.66848,11.92624-11.66848l14.62391-.00523a3.413,3.413,0,0,0,3.41173-3.41347V3.4483A3.41454,3.41454,0,0,0,124.90469.03483Z" transform="translate(-37.80555)"/>
</svg>
