<svg xmlns="http://www.w3.org/2000/svg" width="152.45175" height="163.63215" viewBox="0 0 152.45175 163.63215">
  <defs>
    <style>
      .a {
        fill: #d20000;
      }
    </style>
  </defs>
  <g>
    <path class="a" d="M56.4695,89.50047l-10.45363,0c-13.50392,0-24.97116,10.7232-24.98335,24.22711A24.27734,24.27734,0,0,0,45.30592,138c13.5041-.01268,24.22717-11.48026,24.22717-24.98437l0-60.37773,55.33438-10.08689V79.01057l-10.45329,0c-13.50446,0-24.9724,10.7235-24.98465,24.228a24.27814,24.27814,0,0,0,24.27508,24.27258C127.20842,127.498,137.931,116.03581,137.931,102.532c0-20.08045,0-59.03778,0-71.61886a3.3572,3.3572,0,0,0-3.96823-3.29912L60.04305,41.08878a4.35445,4.35445,0,0,0-3.57355,4.28386Zm57.21123,24.94807a11.18768,11.18768,0,0,1,0-22.37536h11.18672v11.18768A11.20018,11.20018,0,0,1,113.68073,114.44854ZM45.28278,124.93748a11.1872,11.1872,0,0,1,0-22.3744H56.4695v11.18671A11.19957,11.19957,0,0,1,45.28278,124.93748Z" transform="translate(-8.9107 -1.00006)"/>
    <path class="a" d="M56.4695,18.81468v5.6129a3.36481,3.36481,0,0,0,3.96825,3.31026L134.35749,14.2626A4.35446,4.35446,0,0,0,137.931,9.97874V4.36585a3.36481,3.36481,0,0,0-3.96825-3.31026L60.043,14.53082A4.35447,4.35447,0,0,0,56.4695,18.81468Z" transform="translate(-8.9107 -1.00006)"/>
  </g>
  <g>
    <path class="a" d="M115.6356,143.52167h-3.05534a.84428.84428,0,0,0-.8443.84429v12.2015a3.32075,3.32075,0,1,1-6.64149,0V144.366a.84439.84439,0,0,0-.84439-.84435H101.1948a.84434.84434,0,0,0-.84434.84435v12.67587a7.5903,7.5903,0,0,0,7.59033,7.59032h.94876a7.5903,7.5903,0,0,0,7.59032-7.59032V144.366A.84427.84427,0,0,0,115.6356,143.52167Z" transform="translate(-8.9107 -1.00006)"/>
    <path class="a" d="M96.65974,143.52167H92.99423a.8304.8304,0,0,0-.71286.40449L87.186,152.45532l-5.0953-8.52919a.83016.83016,0,0,0-.71267-.40441H77.71223a.84439.84439,0,0,0-.84439.84439v18.94745a.84438.84438,0,0,0,.84439.84439h3.05525a.84439.84439,0,0,0,.84437-.84439V151.4627l4.5085,7.5468a.83015.83015,0,0,0,.71268.40445h.70589a.8302.8302,0,0,0,.7127-.40445l4.5085-7.5468v11.85081a.8444.8444,0,0,0,.84437.84439h3.05525a.84441.84441,0,0,0,.84439-.84439V144.366A.84437.84437,0,0,0,96.65974,143.52167Z" transform="translate(-8.9107 -1.00006)"/>
    <path class="a" d="M160.52817,157.63474h-3.38166a.84124.84124,0,0,0-.74171.442,3.43971,3.43971,0,0,1-6.4696-1.628v-5.21838a3.43974,3.43974,0,0,1,6.4696-1.628.84129.84129,0,0,0,.74171.442l3.38166-.00009a.82754.82754,0,0,0,.81192-1.00779,7.83,7.83,0,0,0-7.60977-5.98948l-.71233,0a7.82755,7.82755,0,0,0-7.8268,7.82758v5.9299a7.82743,7.82743,0,0,0,7.82741,7.82744h.71172a7.82986,7.82986,0,0,0,7.60977-5.98951A.82752.82752,0,0,0,160.52817,157.63474Z" transform="translate(-8.9107 -1.00006)"/>
    <path class="a" d="M17.3296,142.52187h3.05522a.84435.84435,0,0,1,.84435.84435v18.9475a.84433.84433,0,0,1-.84433.84433H17.3296a.84435.84435,0,0,1-.84435-.84435V143.36622A.84435.84435,0,0,1,17.3296,142.52187Z"/>
    <path class="a" d="M50.28477,143.52188h-3.0497a.84711.84711,0,0,0-.84714.84709v11.25371l-8.68188-11.72481a.845.845,0,0,0-.0668-.08573l-.00542-.00606c-.016-.01786-.03253-.03522-.04987-.05163l-.01564-.01422c-.01477-.01314-.02962-.026-.04508-.03814l-.02246-.01667c-.0142-.01045-.02884-.02062-.04382-.03024l-.02562-.01545c-.01505-.00891-.03014-.01739-.04569-.02521l-.0265-.01285c-.0159-.00741-.032-.01447-.04842-.02086l-.02713-.00988c-.01657-.00592-.0333-.01134-.05033-.01616l-.02947-.00762c-.01629-.004-.03257-.00777-.04919-.01074l-.03545-.00542c-.01489-.00211-.02972-.00419-.04486-.00542-.01468-.00129-.0294-.00179-.04424-.0022l-.02843-.00143H33.952a.84714.84714,0,0,0-.84714.8471L33.10482,163.311a.84713.84713,0,0,0,.84712.84712h3.04978a.84712.84712,0,0,0,.8471-.84712V152.06084l8.69276,11.73951a.838.838,0,0,0,.21418.209l.00975.00674c.01684.01126.03443.02164.05207.03162l.02411.0133.0404.01938c.01339.00619.02675.012.04057.01744l.02632.00968c.01873.00675.0377.01292.05721.01842l.0119.00309a.84779.84779,0,0,0,.217.029h3.0497a.84708.84708,0,0,0,.84711-.8471V144.369A.84709.84709,0,0,0,50.28477,143.52188Z" transform="translate(-8.9107 -1.00006)"/>
    <path class="a" d="M21.93956,159.41414l-8.28495.00007V144.36913a.84712.84712,0,0,0-.8471-.84714H9.7578a.84711.84711,0,0,0-.8471.84714V163.3124a.84125.84125,0,0,0,.23632.58521l.01149.01272.01263.0114a.84159.84159,0,0,0,.58523.23642H21.93951a.84718.84718,0,0,0,.8472-.84718v-3.04972A.84711.84711,0,0,0,21.93956,159.41414Z" transform="translate(-8.9107 -1.00006)"/>
    <path class="a" d="M67.12581,143.52179H54.94258a.84149.84149,0,0,0-.58769.23869l-.01.00922-.01362.01483a.84226.84226,0,0,0-.23441.58306v18.94469a.84188.84188,0,0,0,.23636.58527l.01152.01258.01264.01146a.84151.84151,0,0,0,.58522.23641h.00136l12.18332,0a.8457.8457,0,0,0,.84568-.84569V160.2611a.84709.84709,0,0,0-.84706-.847h-8.285v-3.20218h8.2849a.84719.84719,0,0,0,.8472-.84719v-3.05116a.84567.84567,0,0,0-.84568-.84565l-8.28642,0v-3.20211l8.2849-.00008a.8472.8472,0,0,0,.8472-.84718v-3.04963A.84715.84715,0,0,0,67.12581,143.52179Z" transform="translate(-8.9107 -1.00006)"/>
    <path class="a" d="M129.12443,151.91674l-2.47214-.51071c-2.02024-.42592-2.87088-1.07871-2.87088-2.19981,0-1.36237,1.12979-2.228,2.8444-2.22794A2.976,2.976,0,0,1,129.62,148.8415a.81791.81791,0,0,0,.76572.59178h2.9357a.83631.83631,0,0,0,.8319-.95886c-.5419-3.26148-3.49167-5.42725-7.594-5.42718-4.62526,0-7.62907,2.62549-7.62907,6.62727,0,3.22156,1.80763,5.26506,5.31637,5.9747l2.52528.53933c2.1931.46807,3.0304,1.07849,3.0304,2.21376,0,1.34813-1.24944,2.28483-3.07016,2.28483-1.73168,0-3.00438-.69862-3.40793-1.83665a.91325.91325,0,0,0-.79789-.60443h-3.06871a.8373.8373,0,0,0-.83163.95311c.51979,3.38153,3.45918,5.433,7.90675,5.433,5.024,0,8.081-2.5827,8.081-6.85429C134.61369,154.52808,132.91239,152.69735,129.12443,151.91674Z" transform="translate(-8.9107 -1.00006)"/>
    <path class="a" d="M129.35145,142.52146h3.05527a.84431.84431,0,0,1,.84431.84431v18.94756a.84433.84433,0,0,1-.84433.84433h-3.05527a.84433.84433,0,0,1-.84433-.84433V143.36581A.84435.84435,0,0,1,129.35145,142.52146Z"/>
  </g>
</svg>
