<svg xmlns="http://www.w3.org/2000/svg" width="168" height="168" viewBox="0 0 168 168">
  <defs>
    <style>
      .a {
        fill: #d20000;
      }

      .b {
        fill: #fff;
      }
    </style>
  </defs>
  <path class="a" d="M84,0a84,84,0,1,0,84,84A84.0289,84.0289,0,0,0,84,0Z"/>
  <path class="b" d="M137.71936,75.56613a7.78992,7.78992,0,0,1-4.36936-1.321C109.23387,59.85,66.11613,56.39517,38.20646,64.18549a16.08812,16.08812,0,0,1-4.36936.88065,7.81707,7.81707,0,0,1-7.89193-7.99355,8.0027,8.0027,0,0,1,5.89355-8.09516C43.7613,45.48872,57.10646,43.829,71.63711,43.829c24.7258,0,50.63709,5.14839,69.571,16.19032a7.95149,7.95149,0,0,1,4.36936,7.65484,7.84748,7.84748,0,0,1-7.85807,7.89194Zm-10.5,25.80967a8.36394,8.36394,0,0,1-4.16613-1.42258C101.88388,87.421,70.31614,82.37419,42.2371,89.99516a13.9501,13.9501,0,0,1-4.03064.88064,6.57719,6.57719,0,0,1-6.571-6.571,6.66439,6.66439,0,0,1,5.25-7.01129,113.92661,113.92661,0,0,1,33.1258-4.60646c21.98226,0,43.21936,5.45323,59.95162,15.41129a7.06137,7.06137,0,0,1,3.82741,6.67258A6.56294,6.56294,0,0,1,127.21936,101.3758Zm-9.11129,22.21936a6.46254,6.46254,0,0,1-3.6242-1.21936c-21.13548-12.73548-45.72581-13.27742-70.01129-8.29838a21.87232,21.87232,0,0,1-4.03064.88064,5.27348,5.27348,0,0,1-5.35162-5.35161,5.36727,5.36727,0,0,1,4.60645-5.69031c27.74033-6.13065,56.09032-5.58871,80.2742,8.87419,2.06613,1.321,3.28549,2.50645,3.28549,5.58871a5.11793,5.11793,0,0,1-5.14839,5.21613Z"/>
</svg>
